<svg width="26" height="25" viewBox="0 0 26 25" fill="none" xmlns="http://www.w3.org/2000/svg">
<path d="M22.6 5.59999C21.3263 4.93055 19.8409 4.78695 18.4625 5.19999C18.3954 3.79807 17.7912 2.47578 16.7753 1.50737C15.7595 0.53895 14.4098 -0.00128174 13.0063 -0.00128174C11.6027 -0.00128174 10.2531 0.53895 9.23719 1.50737C8.2213 2.47578 7.61714 3.79807 7.55002 5.19999C6.17537 4.786 4.69423 4.91577 3.41252 5.56249C2.46864 6.05859 1.69059 6.82011 1.17434 7.75312C0.658087 8.68614 0.426197 9.74985 0.507269 10.8131C0.58834 11.8763 0.978827 12.8926 1.63057 13.7365C2.28232 14.5805 3.16683 15.2152 4.17502 15.5625C3.5315 16.4781 3.18264 17.5683 3.17502 18.6875C3.18057 19.0017 3.20982 19.3151 3.26252 19.625C3.47302 20.8944 4.1279 22.0477 5.1102 22.8789C6.09249 23.71 7.33825 24.165 8.62502 24.1625C8.89137 24.1807 9.15866 24.1807 9.42502 24.1625C10.8538 23.9374 12.1374 23.161 13 22C13.8717 23.1422 15.154 23.9 16.575 24.1125C16.8414 24.1307 17.1087 24.1307 17.375 24.1125C18.3727 24.1113 19.3509 23.8363 20.2031 23.3175C21.0552 22.7986 21.7486 22.0558 22.2076 21.17C22.6666 20.2842 22.8737 19.2893 22.8062 18.2939C22.7388 17.2985 22.3994 16.3408 21.825 15.525C22.8381 15.1837 23.7285 14.552 24.3853 13.7086C25.0421 12.8651 25.4364 11.8471 25.519 10.7812C25.6016 9.71539 25.3689 8.64879 24.8499 7.71419C24.3309 6.77958 23.5485 6.01827 22.6 5.52499V5.59999ZM10.925 3.17499C11.4834 2.64018 12.2268 2.34164 13 2.34164C13.7732 2.34164 14.5166 2.64018 15.075 3.17499C15.5014 3.60197 15.7909 4.14626 15.9066 4.73845C16.0224 5.33063 15.9592 5.94388 15.725 6.49999L15.4 7.23749L14.575 7.96249C14.0678 7.78838 13.5362 7.69557 13 7.68749C12.307 7.68815 11.6216 7.83288 10.9875 8.11249L10.2875 6.49999C10.0449 5.94634 9.97599 5.33212 10.0898 4.73847C10.2036 4.14481 10.4949 3.59965 10.925 3.17499ZM3.30002 11.725C3.02096 11.1109 2.9598 10.4201 3.12663 9.76654C3.29346 9.11302 3.67829 8.536 4.21753 8.13084C4.75676 7.72569 5.4181 7.51667 6.09223 7.53833C6.76636 7.56 7.41291 7.81105 7.92502 8.24999L8.53752 8.78749L8.97502 9.78749C8.34882 10.6253 8.00716 11.6415 8.00002 12.6875C7.98519 12.8747 7.98519 13.0628 8.00002 13.25H7.31252L6.26252 13.35C5.66195 13.4134 5.05636 13.2917 4.52688 13.0013C3.9974 12.7108 3.56933 12.2655 3.30002 11.725ZM11.55 19.325C11.3995 19.9923 11.0237 20.5873 10.4858 21.0099C9.94788 21.4325 9.28078 21.6568 8.59683 21.6451C7.91288 21.6334 7.25387 21.3863 6.73078 20.9455C6.2077 20.5047 5.8525 19.8971 5.72502 19.225C5.71303 19.0502 5.71303 18.8748 5.72502 18.7C5.72955 18.1919 5.86691 17.6939 6.12347 17.2553C6.38003 16.8167 6.74686 16.4529 7.18752 16.2L7.82502 15.75L8.96252 15.625C9.67946 16.6224 10.7385 17.321 11.9375 17.5875L11.55 19.325ZM13 15.1875C12.5056 15.1875 12.0222 15.0409 11.6111 14.7662C11.2 14.4915 10.8795 14.101 10.6903 13.6442C10.5011 13.1874 10.4516 12.6847 10.5481 12.1998C10.6445 11.7148 10.8826 11.2694 11.2323 10.9197C11.5819 10.5701 12.0273 10.332 12.5123 10.2355C12.9972 10.1391 13.4999 10.1886 13.9567 10.3778C14.4135 10.567 14.804 10.8874 15.0787 11.2986C15.3534 11.7097 15.5 12.193 15.5 12.6875C15.5 13.3505 15.2366 13.9864 14.7678 14.4553C14.2989 14.9241 13.6631 15.1875 13 15.1875ZM20.275 19.2125C20.1461 19.9752 19.7227 20.6567 19.0961 21.1103C18.4695 21.5639 17.6898 21.7532 16.925 21.6375C16.3224 21.5526 15.76 21.2856 15.3132 20.8723C14.8665 20.4591 14.5566 19.9192 14.425 19.325L14.25 18.575L14.5125 17.425C15.6657 17.0494 16.643 16.2676 17.2625 15.225L17.8875 15.6H18L18.825 16.0875C19.361 16.3936 19.7886 16.8588 20.0484 17.4187C20.3082 17.9787 20.3874 18.6055 20.275 19.2125ZM22.7 11.7125C22.4542 12.2093 22.0749 12.628 21.6047 12.9216C21.1345 13.2152 20.5919 13.3722 20.0375 13.375H19.7375L18.9375 13.25L18 12.7375C17.9983 11.5221 17.5539 10.349 16.75 9.43749L17.2875 8.97499L18.075 8.24999C18.5886 7.79341 19.2449 7.52958 19.9316 7.50365C20.6183 7.47772 21.2926 7.69132 21.8391 8.10786C22.3857 8.52441 22.7704 9.118 22.9275 9.78699C23.0845 10.456 23.0041 11.1588 22.7 11.775V11.7125Z" fill="#FAE8E8"/>
</svg>
