<svg width="26" height="27" viewBox="0 0 26 27" fill="none" xmlns="http://www.w3.org/2000/svg">
<path fill-rule="evenodd" clip-rule="evenodd" d="M11.3995 1.20658C12.3267 0.433988 13.6733 0.433986 14.6005 1.20658L24.1507 9.16511C25.0057 9.87758 25.5 10.933 25.5 12.0459V22.75C25.5 24.8211 23.8211 26.5 21.75 26.5H17.375C16.3395 26.5 15.5 25.6605 15.5 24.625V16.5H10.5V24.625C10.5 25.6605 9.66053 26.5 8.625 26.5H4.25C2.17893 26.5 0.5 24.8211 0.5 22.75V12.0459C0.5 10.933 0.994336 9.87759 1.84931 9.16511L11.3995 1.20658ZM22.5502 11.0857L13 3.12714L3.44977 11.0857C3.16478 11.3232 3 11.675 3 12.0459V22.75C3 23.4404 3.55964 24 4.25 24H8V16.5C8 15.1193 9.11929 14 10.5 14H15.5C16.8807 14 18 15.1193 18 16.5V24H21.75C22.4404 24 23 23.4404 23 22.75V12.0459C23 11.675 22.8352 11.3232 22.5502 11.0857Z" fill="#FAE8E8"/>
</svg>
