<svg width="26" height="26" viewBox="0 0 26 26" fill="none" xmlns="http://www.w3.org/2000/svg">
<path fill-rule="evenodd" clip-rule="evenodd" d="M7.75 8C7.75 5.1005 10.1005 2.75 13 2.75C15.8995 2.75 18.25 5.1005 18.25 8C18.25 10.8995 15.8995 13.25 13 13.25C10.1005 13.25 7.75 10.8995 7.75 8ZM17.126 13.9622C19.0138 12.6534 20.25 10.4711 20.25 8C20.25 3.99594 17.0041 0.75 13 0.75C8.99594 0.75 5.75 3.99594 5.75 8C5.75 10.4711 6.98625 12.6534 8.874 13.9622C4.13843 15.6559 0.75 20.1822 0.75 25.5H2.75C2.75 19.8391 7.33908 15.25 13 15.25C18.6609 15.25 23.25 19.8391 23.25 25.5H25.25C25.25 20.1822 21.8616 15.6559 17.126 13.9622Z" fill="#FAE8E8"/>
<path d="M17.126 13.9622L16.9836 13.7568L16.5839 14.0339L17.0418 14.1976L17.126 13.9622ZM8.874 13.9622L8.95819 14.1976L9.41608 14.0339L9.01644 13.7568L8.874 13.9622ZM0.75 25.5H0.5V25.75H0.75V25.5ZM2.75 25.5V25.75H3V25.5H2.75ZM23.25 25.5H23V25.75H23.25V25.5ZM25.25 25.5V25.75H25.5V25.5H25.25ZM13 2.5C9.96243 2.5 7.5 4.96243 7.5 8H8C8 5.23858 10.2386 3 13 3V2.5ZM18.5 8C18.5 4.96243 16.0376 2.5 13 2.5V3C15.7614 3 18 5.23858 18 8H18.5ZM13 13.5C16.0376 13.5 18.5 11.0376 18.5 8H18C18 10.7614 15.7614 13 13 13V13.5ZM7.5 8C7.5 11.0376 9.96243 13.5 13 13.5V13C10.2386 13 8 10.7614 8 8H7.5ZM20 8C20 10.3856 18.8068 12.4926 16.9836 13.7568L17.2684 14.1677C19.2207 12.8141 20.5 10.5565 20.5 8H20ZM13 1C16.866 1 20 4.13401 20 8H20.5C20.5 3.85786 17.1421 0.5 13 0.5V1ZM6 8C6 4.13401 9.13401 1 13 1V0.5C8.85786 0.5 5.5 3.85786 5.5 8H6ZM9.01644 13.7568C7.19317 12.4926 6 10.3856 6 8H5.5C5.5 10.5565 6.77932 12.8141 8.73155 14.1677L9.01644 13.7568ZM1 25.5C1 20.2911 4.31892 15.8568 8.95819 14.1976L8.78981 13.7268C3.95795 15.4549 0.5 20.0733 0.5 25.5H1ZM2.75 25.25H0.75V25.75H2.75V25.25ZM13 15C7.20101 15 2.5 19.701 2.5 25.5H3C3 19.9772 7.47715 15.5 13 15.5V15ZM23.5 25.5C23.5 19.701 18.799 15 13 15V15.5C18.5228 15.5 23 19.9772 23 25.5H23.5ZM25.25 25.25H23.25V25.75H25.25V25.25ZM17.0418 14.1976C21.6811 15.8568 25 20.2911 25 25.5H25.5C25.5 20.0733 22.0421 15.4549 17.2102 13.7268L17.0418 14.1976Z" fill="#FAE8E8"/>
</svg>
